<svg xmlns="http://www.w3.org/2000/svg" viewBox="0 0 64 64">
  <defs>
    <linearGradient id="bg" x1="10" y1="8" x2="54" y2="56" gradientUnits="userSpaceOnUse">
      <stop offset="0" stop-color="#60A5FA"/>
      <stop offset="0.6" stop-color="#2563EB"/>
      <stop offset="1" stop-color="#1D4ED8"/>
    </linearGradient>
  </defs>
  <rect x="4" y="4" width="56" height="56" rx="15" fill="url(#bg)"/>
  <path d="M20 40c-4 0-7-3-7-7s3-7 7-7c1 0 2 0 3 1c1-5 6-8 11-8c7 0 13 5 13 12c3 1 6 4 6 8c0 4-3 8-7 8H20z" fill="#FFFFFF"/>
  <path d="M33 45c-1 0-2 0-2-1c-1-1-1-2 0-3l5-5c1-1 2-1 3 0c1 1 1 2 0 3l-5 5c0 1-1 1-1 1z" fill="#1D4ED8"/>
  <path d="M29 38c-1-1-1-2 0-3l4-4l4 4c1 1 1 2 0 3c-1 1-2 1-3 0l-1-1l-1 1c-1 1-2 1-3 0z" fill="#1D4ED8"/>
</svg>
